<?xml version="1.0" encoding="utf-8"?>
<!-- Generator: Adobe Illustrator 15.0.2, SVG Export Plug-In  -->
<!DOCTYPE svg PUBLIC "-//W3C//DTD SVG 1.1//EN" "http://www.w3.org/Graphics/SVG/1.1/DTD/svg11.dtd" [
	<!ENTITY ns_flows "http://ns.adobe.com/Flows/1.0/">
]>
<svg version="1.1"
	 xmlns="http://www.w3.org/2000/svg" xmlns:xlink="http://www.w3.org/1999/xlink" xmlns:a="http://ns.adobe.com/AdobeSVGViewerExtensions/3.0/"
	 x="0px" y="0px" width="120px" height="120px" viewBox="0 -0.071 120 120"
	 overflow="visible" enable-background="new 0 -0.071 120 120" xml:space="preserve">
<defs>
</defs>
<path fill="#01B3E3" d="M116.954,5.091c-3.088-3.452-8.72-5.069-17.724-5.09L99.02,0c-17.024,0-33.03,4.833-51.903,15.671
	c-19.225,11.041-30.248,22.014-33.7,33.546c-1.806,6.031-1.058,11.816,2.05,15.87c2.358,3.077,5.863,4.978,10.216,5.565
	c-1.073,1.109-2.392,2.113-3.764,3.157c-0.898,0.684-1.829,1.392-2.713,2.151c-6.074,5.206-16.643,15.934-19.188,29.296L0,105.353
	v5.439l0.054,0.163c1.8,5.413,4.999,8.113,10.376,8.755c1.219,0.146,2.487,0.219,3.77,0.219c16.829,0,35.458-12.632,41.902-21.363
	l2.483-3.365l-3.927,1.728c-2.377,1.045-4.761,2.774-7.284,4.606c-2.803,2.03-5.698,4.131-9.093,5.75
	c-4.105,1.959-13.015,5.275-20.362,5.275c-6.298,0-9.617-2.363-10.149-7.222C7.101,99.2,9.833,92.11,15.469,85.375
	c5.148-6.152,12.176-11.263,18.801-13.673c1.024-0.373,2.137-0.651,3.214-0.92c3.488-0.871,7.443-1.859,8.407-6.478l0.316-1.522
	l-1.619,0.213c-2.068,0.271-4.096,0.409-6.026,0.409c-6.446,0-17.344-1.567-17.909-12.061c-0.678-12.599,13.107-22.159,25.191-29.08
	C59.42,14.489,73.096,7.511,91.098,7.511c2.29,0,4.653,0.112,7.024,0.335c6.022,0.564,12.685,3.075,13.319,8.424
	c0.476,3.998-2.435,10.021-4.718,12.833C95.183,43.318,70.125,47.611,60.795,48.74c0.183-2.587,1.125-5.898,2.115-9.375
	c1.189-4.168,2.535-8.893,2.811-13.282l0.083-1.308l-1.372,0.143c-3.083,0.321-4.608,2.126-5.957,3.719
	c-0.535,0.634-1.041,1.233-1.624,1.725l-0.324,0.273l-0.058,0.408c-4.018,29.109-14.46,52.753-31.924,72.284l-3.889,4.347
	l5.318-2.654c7.463-3.724,12.879-11.529,17.788-19.205c3.906-6.11,7.646-13.651,11.13-22.442
	c10.24,16.101,24.163,26.686,42.489,32.321l0.505,0.155l0.684-0.39c1.977-1.128,4.219-2.405,4.774-5.32l0.17-0.896l-0.894-0.33
	C83.413,81.82,70.815,71.158,64.147,56.338c12.885-3.677,27.384-8.695,38.796-17.721c0.158-0.125,15.804-12.625,16.89-24.582
	C120.147,10.586,119.179,7.577,116.954,5.091z"/>
</svg>
